<?xml version="1.0" encoding="utf-8" ?><!-- created by svgstack.com | Attribution is required. --><svg xmlns="http://www.w3.org/2000/svg" xmlns:xlink="http://www.w3.org/1999/xlink" width="1024" height="1024"><path fill="#444343" transform="scale(2 2)" d="M253.409 69.1393C339.306 65.1578 391.203 176.034 327.174 239.641C309.404 257.295 284.37 269.328 259.062 269.255C252.104 269.28 245.25 269.133 238.37 267.964C193.998 260.423 158.615 219.911 156.69 175.013C154.253 118.152 196.309 71.4457 253.409 69.1393Z"/><path fill="#444343" transform="scale(2 2)" d="M327.243 300.4C336.946 299.382 359.578 309.509 368.829 313.812C401.435 328.977 453.135 371.878 453.239 409.955C453.298 431.661 436.859 436.919 419.29 436.929L166.438 436.924L95.1514 436.931C90.7079 436.927 86.1778 437.054 81.7754 436.363C65.9986 433.888 56.9273 418.485 60.1 403.489C62.4009 392.614 70.6971 377.462 77.028 368.242C102.605 330.993 141.37 308.594 185.376 300.4C196.139 306.138 202.691 310.042 215.064 313.729C256.551 326.093 290.139 320.425 327.243 300.4Z"/></svg> 